<svg width="353" height="181" viewBox="0 0 353 181" fill="none" xmlns="http://www.w3.org/2000/svg">
<g clip-path="url(#clip0_123_35)">
<rect width="353" height="181" fill="#495E57"/>
<circle cx="41" cy="37" r="18.5" fill="#FCF022" stroke="#FCF022"/>
<path d="M74.4825 19.3975C70.8361 21.8925 69.9026 26.871 72.3975 30.5175C74.8925 34.1639 79.871 35.0974 83.5175 32.6025L74.4825 19.3975ZM83.5175 32.6025C97.7669 22.8528 108.406 15.211 117.842 2.6069C127.153 -9.83115 134.977 -26.6532 145.018 -54.2661L129.982 -59.7339C120.023 -32.3468 112.847 -17.4188 105.033 -6.9819C97.3442 3.28899 88.7331 9.64718 74.4825 19.3975L83.5175 32.6025Z" fill="#FCF022"/>
<ellipse cx="331.5" cy="165" rx="94.5" ry="92" fill="#7CA094"/>
<path d="M439 165.5C439 223.17 391.138 270 332 270C272.862 270 225 223.17 225 165.5C225 107.83 272.862 61 332 61C391.138 61 439 107.83 439 165.5Z" stroke="#7CA094" stroke-width="4"/>
<path d="M292.984 146H289.624L282.016 134.504V146H278.656V129.224H282.016L289.624 140.744V129.224H292.984V146ZM302.208 146.216C300.928 146.216 299.776 145.936 298.752 145.376C297.728 144.8 296.92 143.992 296.328 142.952C295.752 141.912 295.464 140.712 295.464 139.352C295.464 137.992 295.76 136.792 296.352 135.752C296.96 134.712 297.784 133.912 298.824 133.352C299.864 132.776 301.024 132.488 302.304 132.488C303.584 132.488 304.744 132.776 305.784 133.352C306.824 133.912 307.64 134.712 308.232 135.752C308.84 136.792 309.144 137.992 309.144 139.352C309.144 140.712 308.832 141.912 308.208 142.952C307.6 143.992 306.768 144.8 305.712 145.376C304.672 145.936 303.504 146.216 302.208 146.216ZM302.208 143.288C302.816 143.288 303.384 143.144 303.912 142.856C304.456 142.552 304.888 142.104 305.208 141.512C305.528 140.92 305.688 140.2 305.688 139.352C305.688 138.088 305.352 137.12 304.68 136.448C304.024 135.76 303.216 135.416 302.256 135.416C301.296 135.416 300.488 135.76 299.832 136.448C299.192 137.12 298.872 138.088 298.872 139.352C298.872 140.616 299.184 141.592 299.808 142.28C300.448 142.952 301.248 143.288 302.208 143.288ZM330.041 132.704L326.153 146H322.529L320.105 136.712L317.681 146H314.033L310.121 132.704H313.529L315.881 142.832L318.425 132.704H321.977L324.473 142.808L326.825 132.704H330.041Z" fill="white"/>
<path d="M35.872 80.432C35.872 81.328 35.656 82.168 35.224 82.952C34.808 83.736 34.144 84.368 33.232 84.848C32.336 85.328 31.2 85.568 29.824 85.568H27.016V92H23.656V75.248H29.824C31.12 75.248 32.224 75.472 33.136 75.92C34.048 76.368 34.728 76.984 35.176 77.768C35.64 78.552 35.872 79.44 35.872 80.432ZM29.68 82.856C30.608 82.856 31.296 82.648 31.744 82.232C32.192 81.8 32.416 81.2 32.416 80.432C32.416 78.8 31.504 77.984 29.68 77.984H27.016V82.856H29.68ZM41.6176 74.24V92H38.2576V74.24H41.6176ZM44.0732 85.304C44.0732 83.96 44.3372 82.768 44.8652 81.728C45.4093 80.688 46.1373 79.888 47.0493 79.328C47.9773 78.768 49.0093 78.488 50.1453 78.488C51.1373 78.488 52.0013 78.688 52.7373 79.088C53.4893 79.488 54.0893 79.992 54.5373 80.6V78.704H57.9213V92H54.5373V90.056C54.1053 90.68 53.5053 91.2 52.7373 91.616C51.9853 92.016 51.1133 92.216 50.1213 92.216C49.0013 92.216 47.9773 91.928 47.0493 91.352C46.1373 90.776 45.4093 89.968 44.8652 88.928C44.3372 87.872 44.0732 86.664 44.0732 85.304ZM54.5373 85.352C54.5373 84.536 54.3773 83.84 54.0573 83.264C53.7373 82.672 53.3053 82.224 52.7613 81.92C52.2173 81.6 51.6333 81.44 51.0093 81.44C50.3853 81.44 49.8093 81.592 49.2812 81.896C48.7533 82.2 48.3213 82.648 47.9853 83.24C47.6653 83.816 47.5053 84.504 47.5053 85.304C47.5053 86.104 47.6653 86.808 47.9853 87.416C48.3213 88.008 48.7533 88.464 49.2812 88.784C49.8253 89.104 50.4013 89.264 51.0093 89.264C51.6333 89.264 52.2173 89.112 52.7613 88.808C53.3053 88.488 53.7373 88.04 54.0573 87.464C54.3773 86.872 54.5373 86.168 54.5373 85.352ZM73.9229 78.704L65.6909 98.288H62.1149L64.9949 91.664L59.6669 78.704H63.4349L66.8669 87.992L70.3469 78.704H73.9229ZM77.4381 77.12C76.8461 77.12 76.3501 76.936 75.9501 76.568C75.5661 76.184 75.3741 75.712 75.3741 75.152C75.3741 74.592 75.5661 74.128 75.9501 73.76C76.3501 73.376 76.8461 73.184 77.4381 73.184C78.0301 73.184 78.5181 73.376 78.9021 73.76C79.3021 74.128 79.5021 74.592 79.5021 75.152C79.5021 75.712 79.3021 76.184 78.9021 76.568C78.5181 76.936 78.0301 77.12 77.4381 77.12ZM79.0941 78.704V92H75.7341V78.704H79.0941ZM89.7818 78.512C91.3658 78.512 92.6458 79.016 93.6218 80.024C94.5978 81.016 95.0858 82.408 95.0858 84.2V92H91.7258V84.656C91.7258 83.6 91.4618 82.792 90.9338 82.232C90.4058 81.656 89.6858 81.368 88.7738 81.368C87.8458 81.368 87.1098 81.656 86.5658 82.232C86.0378 82.792 85.7738 83.6 85.7738 84.656V92H82.4138V78.704H85.7738V80.36C86.2218 79.784 86.7898 79.336 87.4778 79.016C88.1818 78.68 88.9498 78.512 89.7818 78.512ZM103.489 78.488C104.481 78.488 105.353 78.688 106.105 79.088C106.857 79.472 107.449 79.976 107.881 80.6V78.704H111.265V92.096C111.265 93.328 111.017 94.424 110.521 95.384C110.025 96.36 109.281 97.128 108.289 97.688C107.297 98.264 106.097 98.552 104.689 98.552C102.801 98.552 101.249 98.112 100.033 97.232C98.833 96.352 98.153 95.152 97.993 93.632H101.329C101.505 94.24 101.881 94.72 102.457 95.072C103.049 95.44 103.761 95.624 104.593 95.624C105.569 95.624 106.361 95.328 106.969 94.736C107.577 94.16 107.881 93.28 107.881 92.096V90.032C107.449 90.656 106.849 91.176 106.081 91.592C105.329 92.008 104.465 92.216 103.489 92.216C102.369 92.216 101.345 91.928 100.417 91.352C99.489 90.776 98.753 89.968 98.209 88.928C97.681 87.872 97.417 86.664 97.417 85.304C97.417 83.96 97.681 82.768 98.209 81.728C98.753 80.688 99.481 79.888 100.393 79.328C101.321 78.768 102.353 78.488 103.489 78.488ZM107.881 85.352C107.881 84.536 107.721 83.84 107.401 83.264C107.081 82.672 106.649 82.224 106.105 81.92C105.561 81.6 104.977 81.44 104.353 81.44C103.729 81.44 103.153 81.592 102.625 81.896C102.097 82.2 101.665 82.648 101.329 83.24C101.009 83.816 100.849 84.504 100.849 85.304C100.849 86.104 101.009 86.808 101.329 87.416C101.665 88.008 102.097 88.464 102.625 88.784C103.169 89.104 103.745 89.264 104.353 89.264C104.977 89.264 105.561 89.112 106.105 88.808C106.649 88.488 107.081 88.04 107.401 87.464C107.721 86.872 107.881 86.168 107.881 85.352ZM130.609 75.248V77.96H123.625V82.256H128.977V84.92H123.625V92H120.265V75.248H130.609ZM138.896 92.216C137.616 92.216 136.464 91.936 135.44 91.376C134.416 90.8 133.608 89.992 133.016 88.952C132.44 87.912 132.152 86.712 132.152 85.352C132.152 83.992 132.448 82.792 133.04 81.752C133.648 80.712 134.472 79.912 135.512 79.352C136.552 78.776 137.712 78.488 138.992 78.488C140.272 78.488 141.432 78.776 142.472 79.352C143.512 79.912 144.328 80.712 144.92 81.752C145.528 82.792 145.832 83.992 145.832 85.352C145.832 86.712 145.52 87.912 144.896 88.952C144.288 89.992 143.456 90.8 142.4 91.376C141.36 91.936 140.192 92.216 138.896 92.216ZM138.896 89.288C139.504 89.288 140.072 89.144 140.6 88.856C141.144 88.552 141.576 88.104 141.896 87.512C142.216 86.92 142.376 86.2 142.376 85.352C142.376 84.088 142.04 83.12 141.368 82.448C140.712 81.76 139.904 81.416 138.944 81.416C137.984 81.416 137.176 81.76 136.52 82.448C135.88 83.12 135.56 84.088 135.56 85.352C135.56 86.616 135.872 87.592 136.496 88.28C137.136 88.952 137.936 89.288 138.896 89.288ZM154.201 92.216C152.921 92.216 151.769 91.936 150.745 91.376C149.721 90.8 148.913 89.992 148.321 88.952C147.745 87.912 147.457 86.712 147.457 85.352C147.457 83.992 147.753 82.792 148.345 81.752C148.953 80.712 149.777 79.912 150.817 79.352C151.857 78.776 153.017 78.488 154.297 78.488C155.577 78.488 156.737 78.776 157.777 79.352C158.817 79.912 159.633 80.712 160.225 81.752C160.833 82.792 161.137 83.992 161.137 85.352C161.137 86.712 160.825 87.912 160.201 88.952C159.593 89.992 158.761 90.8 157.705 91.376C156.665 91.936 155.497 92.216 154.201 92.216ZM154.201 89.288C154.809 89.288 155.377 89.144 155.905 88.856C156.449 88.552 156.881 88.104 157.201 87.512C157.521 86.92 157.681 86.2 157.681 85.352C157.681 84.088 157.345 83.12 156.673 82.448C156.017 81.76 155.209 81.416 154.249 81.416C153.289 81.416 152.481 81.76 151.825 82.448C151.185 83.12 150.865 84.088 150.865 85.352C150.865 86.616 151.177 87.592 151.801 88.28C152.441 88.952 153.241 89.288 154.201 89.288ZM167.513 81.464V87.896C167.513 88.344 167.617 88.672 167.825 88.88C168.049 89.072 168.417 89.168 168.929 89.168H170.489V92H168.377C165.545 92 164.129 90.624 164.129 87.872V81.464H162.545V78.704H164.129V75.416H167.513V78.704H170.489V81.464H167.513ZM176.266 80.648C176.698 80.008 177.29 79.488 178.042 79.088C178.81 78.688 179.682 78.488 180.658 78.488C181.794 78.488 182.818 78.768 183.73 79.328C184.658 79.888 185.386 80.688 185.914 81.728C186.458 82.752 186.73 83.944 186.73 85.304C186.73 86.664 186.458 87.872 185.914 88.928C185.386 89.968 184.658 90.776 183.73 91.352C182.818 91.928 181.794 92.216 180.658 92.216C179.666 92.216 178.794 92.024 178.042 91.64C177.306 91.24 176.714 90.728 176.266 90.104V92H172.906V74.24H176.266V80.648ZM183.298 85.304C183.298 84.504 183.13 83.816 182.794 83.24C182.474 82.648 182.042 82.2 181.498 81.896C180.97 81.592 180.394 81.44 179.77 81.44C179.162 81.44 178.586 81.6 178.042 81.92C177.514 82.224 177.082 82.672 176.746 83.264C176.426 83.856 176.266 84.552 176.266 85.352C176.266 86.152 176.426 86.848 176.746 87.44C177.082 88.032 177.514 88.488 178.042 88.808C178.586 89.112 179.162 89.264 179.77 89.264C180.394 89.264 180.97 89.104 181.498 88.784C182.042 88.464 182.474 88.008 182.794 87.416C183.13 86.824 183.298 86.12 183.298 85.304ZM188.308 85.304C188.308 83.96 188.572 82.768 189.1 81.728C189.644 80.688 190.372 79.888 191.284 79.328C192.212 78.768 193.244 78.488 194.38 78.488C195.372 78.488 196.236 78.688 196.972 79.088C197.724 79.488 198.324 79.992 198.772 80.6V78.704H202.156V92H198.772V90.056C198.34 90.68 197.74 91.2 196.972 91.616C196.22 92.016 195.348 92.216 194.356 92.216C193.236 92.216 192.212 91.928 191.284 91.352C190.372 90.776 189.644 89.968 189.1 88.928C188.572 87.872 188.308 86.664 188.308 85.304ZM198.772 85.352C198.772 84.536 198.612 83.84 198.292 83.264C197.972 82.672 197.54 82.224 196.996 81.92C196.452 81.6 195.868 81.44 195.244 81.44C194.62 81.44 194.044 81.592 193.516 81.896C192.988 82.2 192.556 82.648 192.22 83.24C191.9 83.816 191.74 84.504 191.74 85.304C191.74 86.104 191.9 86.808 192.22 87.416C192.556 88.008 192.988 88.464 193.516 88.784C194.06 89.104 194.636 89.264 195.244 89.264C195.868 89.264 196.452 89.112 196.996 88.808C197.54 88.488 197.972 88.04 198.292 87.464C198.612 86.872 198.772 86.168 198.772 85.352ZM208.797 74.24V92H205.437V74.24H208.797Z" fill="#FCF022"/>
<path d="M37.68 106.88L34.384 118H32.32L29.984 109.584L27.504 118L25.456 118.016L22.304 106.88H24.24L26.544 115.936L29.04 106.88H31.088L33.408 115.888L35.728 106.88H37.68ZM40.1124 108.016C39.7817 108.016 39.5044 107.904 39.2804 107.68C39.0564 107.456 38.9444 107.179 38.9444 106.848C38.9444 106.517 39.0564 106.24 39.2804 106.016C39.5044 105.792 39.7817 105.68 40.1124 105.68C40.4324 105.68 40.7044 105.792 40.9284 106.016C41.1524 106.24 41.2644 106.517 41.2644 106.848C41.2644 107.179 41.1524 107.456 40.9284 107.68C40.7044 107.904 40.4324 108.016 40.1124 108.016ZM41.0084 109.184V118H39.1844V109.184H41.0084ZM45.5311 110.672V115.552C45.5311 115.883 45.6058 116.123 45.7551 116.272C45.9151 116.411 46.1818 116.48 46.5551 116.48H47.6751V118H46.2351C45.4138 118 44.7845 117.808 44.3471 117.424C43.9098 117.04 43.6911 116.416 43.6911 115.552V110.672H42.6511V109.184H43.6911V106.992H45.5311V109.184H47.6751V110.672H45.5311ZM53.9163 109.04C54.5883 109.04 55.1856 109.184 55.7083 109.472C56.2416 109.76 56.6576 110.187 56.9563 110.752C57.2656 111.317 57.4203 112 57.4203 112.8V118H55.6123V113.072C55.6123 112.283 55.4149 111.68 55.0203 111.264C54.6256 110.837 54.0869 110.624 53.4043 110.624C52.7216 110.624 52.1776 110.837 51.7723 111.264C51.3776 111.68 51.1803 112.283 51.1803 113.072V118H49.3563V106.16H51.1803V110.208C51.4896 109.835 51.8789 109.547 52.3483 109.344C52.8283 109.141 53.3509 109.04 53.9163 109.04ZM67.5991 110.672H65.9671V118H64.1271V110.672H63.0871V109.184H64.1271V108.56C64.1271 107.547 64.3938 106.811 64.9271 106.352C65.4711 105.883 66.3191 105.648 67.4711 105.648V107.168C66.9165 107.168 66.5271 107.275 66.3031 107.488C66.0791 107.691 65.9671 108.048 65.9671 108.56V109.184H67.5991V110.672ZM71.0396 110.464C71.3063 110.016 71.6583 109.669 72.0956 109.424C72.5436 109.168 73.0716 109.04 73.6796 109.04V110.928H73.2156C72.501 110.928 71.957 111.109 71.5836 111.472C71.221 111.835 71.0396 112.464 71.0396 113.36V118H69.2156V109.184H71.0396V110.464ZM76.2843 108.016C75.9536 108.016 75.6763 107.904 75.4523 107.68C75.2283 107.456 75.1163 107.179 75.1163 106.848C75.1163 106.517 75.2283 106.24 75.4523 106.016C75.6763 105.792 75.9536 105.68 76.2843 105.68C76.6043 105.68 76.8763 105.792 77.1003 106.016C77.3243 106.24 77.4363 106.517 77.4363 106.848C77.4363 107.179 77.3243 107.456 77.1003 107.68C76.8763 107.904 76.6043 108.016 76.2843 108.016ZM77.1803 109.184V118H75.3563V109.184H77.1803ZM87.655 113.376C87.655 113.707 87.6337 114.005 87.591 114.272H80.855C80.9083 114.976 81.1697 115.541 81.639 115.968C82.1083 116.395 82.6843 116.608 83.367 116.608C84.3483 116.608 85.0417 116.197 85.447 115.376H87.415C87.1483 116.187 86.663 116.853 85.959 117.376C85.2657 117.888 84.4017 118.144 83.367 118.144C82.5243 118.144 81.767 117.957 81.095 117.584C80.4337 117.2 79.911 116.667 79.527 115.984C79.1537 115.291 78.967 114.491 78.967 113.584C78.967 112.677 79.1483 111.883 79.511 111.2C79.8843 110.507 80.4017 109.973 81.063 109.6C81.735 109.227 82.503 109.04 83.367 109.04C84.199 109.04 84.9403 109.221 85.591 109.584C86.2417 109.947 86.7483 110.459 87.111 111.12C87.4737 111.771 87.655 112.523 87.655 113.376ZM85.751 112.8C85.7403 112.128 85.5003 111.589 85.031 111.184C84.5617 110.779 83.9803 110.576 83.287 110.576C82.6577 110.576 82.119 110.779 81.671 111.184C81.223 111.579 80.9563 112.117 80.871 112.8H85.751ZM93.898 109.04C94.5913 109.04 95.21 109.184 95.754 109.472C96.3087 109.76 96.7407 110.187 97.05 110.752C97.3593 111.317 97.514 112 97.514 112.8V118H95.706V113.072C95.706 112.283 95.5087 111.68 95.114 111.264C94.7193 110.837 94.1807 110.624 93.498 110.624C92.8153 110.624 92.2713 110.837 91.866 111.264C91.4713 111.68 91.274 112.283 91.274 113.072V118H89.45V109.184H91.274V110.192C91.5727 109.829 91.9513 109.547 92.41 109.344C92.8793 109.141 93.3753 109.04 93.898 109.04ZM99.2326 113.552C99.2326 112.667 99.414 111.883 99.7766 111.2C100.15 110.517 100.651 109.989 101.281 109.616C101.921 109.232 102.63 109.04 103.409 109.04C103.985 109.04 104.55 109.168 105.105 109.424C105.67 109.669 106.118 110 106.449 110.416V106.16H108.289V118H106.449V116.672C106.15 117.099 105.734 117.451 105.201 117.728C104.678 118.005 104.075 118.144 103.393 118.144C102.625 118.144 101.921 117.952 101.281 117.568C100.651 117.173 100.15 116.629 99.7766 115.936C99.414 115.232 99.2326 114.437 99.2326 113.552ZM106.449 113.584C106.449 112.976 106.321 112.448 106.065 112C105.819 111.552 105.494 111.211 105.089 110.976C104.683 110.741 104.246 110.624 103.777 110.624C103.307 110.624 102.87 110.741 102.465 110.976C102.059 111.2 101.729 111.536 101.473 111.984C101.227 112.421 101.105 112.944 101.105 113.552C101.105 114.16 101.227 114.693 101.473 115.152C101.729 115.611 102.059 115.963 102.465 116.208C102.881 116.443 103.318 116.56 103.777 116.56C104.246 116.56 104.683 116.443 105.089 116.208C105.494 115.973 105.819 115.632 106.065 115.184C106.321 114.725 106.449 114.192 106.449 113.584Z" fill="#CCC9C9"/>
</g>
<defs>
<clipPath id="clip0_123_35">
<rect width="353" height="181" rx="16" fill="white"/>
</clipPath>
</defs>
</svg>
