<svg width="428" height="208" viewBox="0 0 428 208" fill="none" xmlns="http://www.w3.org/2000/svg">
<rect width="428" height="181" rx="20" fill="#F5F7F8"/>
<path d="M33.34 25.96V28.7H29.62V40H26.2V28.7H22.48V25.96H33.34ZM46.0764 28.84V40H42.6564V38.48C42.3097 38.9733 41.8364 39.3733 41.2364 39.68C40.6497 39.9733 39.9964 40.12 39.2764 40.12C38.4231 40.12 37.6697 39.9333 37.0164 39.56C36.3631 39.1733 35.8564 38.62 35.4964 37.9C35.1364 37.18 34.9564 36.3333 34.9564 35.36V28.84H38.3564V34.9C38.3564 35.6467 38.5497 36.2267 38.9364 36.64C39.3231 37.0533 39.8431 37.26 40.4964 37.26C41.1631 37.26 41.6897 37.0533 42.0764 36.64C42.4631 36.2267 42.6564 35.6467 42.6564 34.9V28.84H46.0764ZM59.053 34.24C59.053 34.56 59.033 34.8933 58.993 35.24H51.253C51.3063 35.9333 51.5263 36.4667 51.913 36.84C52.313 37.2 52.7996 37.38 53.373 37.38C54.2263 37.38 54.8196 37.02 55.153 36.3H58.793C58.6063 37.0333 58.2663 37.6933 57.773 38.28C57.293 38.8667 56.6863 39.3267 55.953 39.66C55.2196 39.9933 54.3996 40.16 53.493 40.16C52.3996 40.16 51.4263 39.9267 50.573 39.46C49.7196 38.9933 49.053 38.3267 48.573 37.46C48.093 36.5933 47.853 35.58 47.853 34.42C47.853 33.26 48.0863 32.2467 48.553 31.38C49.033 30.5133 49.6996 29.8467 50.553 29.38C51.4063 28.9133 52.3863 28.68 53.493 28.68C54.573 28.68 55.533 28.9067 56.373 29.36C57.213 29.8133 57.8663 30.46 58.333 31.3C58.813 32.14 59.053 33.12 59.053 34.24ZM55.553 33.34C55.553 32.7533 55.353 32.2867 54.953 31.94C54.553 31.5933 54.053 31.42 53.453 31.42C52.8796 31.42 52.393 31.5867 51.993 31.92C51.6063 32.2533 51.3663 32.7267 51.273 33.34H55.553ZM65.3972 40.16C64.4239 40.16 63.5572 39.9933 62.7972 39.66C62.0372 39.3267 61.4372 38.8733 60.9972 38.3C60.5572 37.7133 60.3105 37.06 60.2572 36.34H63.6372C63.6772 36.7267 63.8572 37.04 64.1772 37.28C64.4972 37.52 64.8905 37.64 65.3572 37.64C65.7839 37.64 66.1105 37.56 66.3372 37.4C66.5772 37.2267 66.6972 37.0067 66.6972 36.74C66.6972 36.42 66.5305 36.1867 66.1972 36.04C65.8639 35.88 65.3239 35.7067 64.5772 35.52C63.7772 35.3333 63.1105 35.14 62.5772 34.94C62.0439 34.7267 61.5839 34.4 61.1972 33.96C60.8105 33.5067 60.6172 32.9 60.6172 32.14C60.6172 31.5 60.7905 30.92 61.1372 30.4C61.4972 29.8667 62.0172 29.4467 62.6972 29.14C63.3905 28.8333 64.2105 28.68 65.1572 28.68C66.5572 28.68 67.6572 29.0267 68.4572 29.72C69.2705 30.4133 69.7372 31.3333 69.8572 32.48H66.6972C66.6439 32.0933 66.4705 31.7867 66.1772 31.56C65.8972 31.3333 65.5239 31.22 65.0572 31.22C64.6572 31.22 64.3505 31.3 64.1372 31.46C63.9239 31.6067 63.8172 31.8133 63.8172 32.08C63.8172 32.4 63.9839 32.64 64.3172 32.8C64.6639 32.96 65.1972 33.12 65.9172 33.28C66.7439 33.4933 67.4172 33.7067 67.9372 33.92C68.4572 34.12 68.9105 34.4533 69.2972 34.92C69.6972 35.3733 69.9039 35.9867 69.9172 36.76C69.9172 37.4133 69.7305 38 69.3572 38.52C68.9972 39.0267 68.4705 39.4267 67.7772 39.72C67.0972 40.0133 66.3039 40.16 65.3972 40.16ZM71.3295 34.4C71.3295 33.2533 71.5429 32.2467 71.9695 31.38C72.4095 30.5133 73.0029 29.8467 73.7495 29.38C74.4962 28.9133 75.3295 28.68 76.2495 28.68C76.9829 28.68 77.6495 28.8333 78.2495 29.14C78.8629 29.4467 79.3429 29.86 79.6895 30.38V25.2H83.1095V40H79.6895V38.4C79.3695 38.9333 78.9095 39.36 78.3095 39.68C77.7229 40 77.0362 40.16 76.2495 40.16C75.3295 40.16 74.4962 39.9267 73.7495 39.46C73.0029 38.98 72.4095 38.3067 71.9695 37.44C71.5429 36.56 71.3295 35.5467 71.3295 34.4ZM79.6895 34.42C79.6895 33.5667 79.4495 32.8933 78.9695 32.4C78.5029 31.9067 77.9295 31.66 77.2495 31.66C76.5695 31.66 75.9895 31.9067 75.5095 32.4C75.0429 32.88 74.8095 33.5467 74.8095 34.4C74.8095 35.2533 75.0429 35.9333 75.5095 36.44C75.9895 36.9333 76.5695 37.18 77.2495 37.18C77.9295 37.18 78.5029 36.9333 78.9695 36.44C79.4495 35.9467 79.6895 35.2733 79.6895 34.42ZM84.9038 34.4C84.9038 33.2533 85.1171 32.2467 85.5438 31.38C85.9838 30.5133 86.5771 29.8467 87.3238 29.38C88.0704 28.9133 88.9038 28.68 89.8238 28.68C90.6104 28.68 91.2971 28.84 91.8838 29.16C92.4838 29.48 92.9438 29.9 93.2638 30.42V28.84H96.6838V40H93.2638V38.42C92.9304 38.94 92.4638 39.36 91.8638 39.68C91.2771 40 90.5904 40.16 89.8038 40.16C88.8971 40.16 88.0704 39.9267 87.3238 39.46C86.5771 38.98 85.9838 38.3067 85.5438 37.44C85.1171 36.56 84.9038 35.5467 84.9038 34.4ZM93.2638 34.42C93.2638 33.5667 93.0238 32.8933 92.5438 32.4C92.0771 31.9067 91.5038 31.66 90.8238 31.66C90.1438 31.66 89.5638 31.9067 89.0838 32.4C88.6171 32.88 88.3838 33.5467 88.3838 34.4C88.3838 35.2533 88.6171 35.9333 89.0838 36.44C89.5638 36.9333 90.1438 37.18 90.8238 37.18C91.5038 37.18 92.0771 36.9333 92.5438 36.44C93.0238 35.9467 93.2638 35.2733 93.2638 34.42ZM110.558 28.84L103.558 45.3H99.878L102.438 39.62L97.898 28.84H101.718L104.298 35.82L106.858 28.84H110.558ZM115.573 37.26C116.026 36.9 116.233 36.7333 116.193 36.76C117.5 35.68 118.526 34.7933 119.273 34.1C120.033 33.4067 120.673 32.68 121.193 31.92C121.713 31.16 121.973 30.42 121.973 29.7C121.973 29.1533 121.846 28.7267 121.593 28.42C121.34 28.1133 120.96 27.96 120.453 27.96C119.946 27.96 119.546 28.1533 119.253 28.54C118.973 28.9133 118.833 29.4467 118.833 30.14H115.533C115.56 29.0067 115.8 28.06 116.253 27.3C116.72 26.54 117.326 25.98 118.073 25.62C118.833 25.26 119.673 25.08 120.593 25.08C122.18 25.08 123.373 25.4867 124.173 26.3C124.986 27.1133 125.393 28.1733 125.393 29.48C125.393 30.9067 124.906 32.2333 123.933 33.46C122.96 34.6733 121.72 35.86 120.213 37.02H125.613V39.8H115.573V37.26ZM137.399 28.38H131.159V31.14C131.425 30.8467 131.799 30.6067 132.279 30.42C132.759 30.2333 133.279 30.14 133.839 30.14C134.839 30.14 135.665 30.3667 136.319 30.82C136.985 31.2733 137.472 31.86 137.779 32.58C138.085 33.3 138.239 34.08 138.239 34.92C138.239 36.48 137.799 37.72 136.919 38.64C136.039 39.5467 134.799 40 133.199 40C132.132 40 131.205 39.82 130.419 39.46C129.632 39.0867 129.025 38.5733 128.599 37.92C128.172 37.2667 127.939 36.5133 127.899 35.66H131.239C131.319 36.0733 131.512 36.42 131.819 36.7C132.125 36.9667 132.545 37.1 133.079 37.1C133.705 37.1 134.172 36.9 134.479 36.5C134.785 36.1 134.939 35.5667 134.939 34.9C134.939 34.2467 134.779 33.7467 134.459 33.4C134.139 33.0533 133.672 32.88 133.059 32.88C132.605 32.88 132.232 32.9933 131.939 33.22C131.645 33.4333 131.452 33.72 131.359 34.08H128.059V25.38H137.399V28.38ZM144.147 36.84L141.927 42.58H139.747L140.907 36.84H144.147ZM145.529 34.4C145.529 33.2533 145.742 32.2467 146.169 31.38C146.609 30.5133 147.202 29.8467 147.949 29.38C148.695 28.9133 149.529 28.68 150.449 28.68C151.182 28.68 151.849 28.8333 152.449 29.14C153.062 29.4467 153.542 29.86 153.889 30.38V25.2H157.309V40H153.889V38.4C153.569 38.9333 153.109 39.36 152.509 39.68C151.922 40 151.235 40.16 150.449 40.16C149.529 40.16 148.695 39.9267 147.949 39.46C147.202 38.98 146.609 38.3067 146.169 37.44C145.742 36.56 145.529 35.5467 145.529 34.4ZM153.889 34.42C153.889 33.5667 153.649 32.8933 153.169 32.4C152.702 31.9067 152.129 31.66 151.449 31.66C150.769 31.66 150.189 31.9067 149.709 32.4C149.242 32.88 149.009 33.5467 149.009 34.4C149.009 35.2533 149.242 35.9333 149.709 36.44C150.189 36.9333 150.769 37.18 151.449 37.18C152.129 37.18 152.702 36.9333 153.169 36.44C153.649 35.9467 153.889 35.2733 153.889 34.42ZM170.303 34.24C170.303 34.56 170.283 34.8933 170.243 35.24H162.503C162.556 35.9333 162.776 36.4667 163.163 36.84C163.563 37.2 164.05 37.38 164.623 37.38C165.476 37.38 166.07 37.02 166.403 36.3H170.043C169.856 37.0333 169.516 37.6933 169.023 38.28C168.543 38.8667 167.936 39.3267 167.203 39.66C166.47 39.9933 165.65 40.16 164.743 40.16C163.65 40.16 162.676 39.9267 161.823 39.46C160.97 38.9933 160.303 38.3267 159.823 37.46C159.343 36.5933 159.103 35.58 159.103 34.42C159.103 33.26 159.336 32.2467 159.803 31.38C160.283 30.5133 160.95 29.8467 161.803 29.38C162.656 28.9133 163.636 28.68 164.743 28.68C165.823 28.68 166.783 28.9067 167.623 29.36C168.463 29.8133 169.116 30.46 169.583 31.3C170.063 32.14 170.303 33.12 170.303 34.24ZM166.803 33.34C166.803 32.7533 166.603 32.2867 166.203 31.94C165.803 31.5933 165.303 31.42 164.703 31.42C164.13 31.42 163.643 31.5867 163.243 31.92C162.856 32.2533 162.616 32.7267 162.523 33.34H166.803ZM171.427 34.42C171.427 33.26 171.661 32.2467 172.127 31.38C172.607 30.5133 173.267 29.8467 174.107 29.38C174.961 28.9133 175.934 28.68 177.027 28.68C178.427 28.68 179.594 29.0467 180.527 29.78C181.474 30.5133 182.094 31.5467 182.387 32.88H178.747C178.441 32.0267 177.847 31.6 176.967 31.6C176.341 31.6 175.841 31.8467 175.467 32.34C175.094 32.82 174.907 33.5133 174.907 34.42C174.907 35.3267 175.094 36.0267 175.467 36.52C175.841 37 176.341 37.24 176.967 37.24C177.847 37.24 178.441 36.8133 178.747 35.96H182.387C182.094 37.2667 181.474 38.2933 180.527 39.04C179.581 39.7867 178.414 40.16 177.027 40.16C175.934 40.16 174.961 39.9267 174.107 39.46C173.267 38.9933 172.607 38.3267 172.127 37.46C171.661 36.5933 171.427 35.58 171.427 34.42Z" fill="#495E57"/>
<path d="M197.5 36L191.871 31.5H203.129L197.5 36Z" fill="#495E57"/>
<path d="M30.364 74.112C29.6173 74.112 28.9453 73.984 28.348 73.728C27.7507 73.4613 27.2813 73.088 26.94 72.608C26.5987 72.128 26.428 71.568 26.428 70.928H28.38C28.4227 71.408 28.6093 71.8027 28.94 72.112C29.2813 72.4213 29.756 72.576 30.364 72.576C30.9933 72.576 31.484 72.4267 31.836 72.128C32.188 71.8187 32.364 71.424 32.364 70.944C32.364 70.5707 32.252 70.2667 32.028 70.032C31.8147 69.7973 31.5427 69.616 31.212 69.488C30.892 69.36 30.444 69.2213 29.868 69.072C29.1427 68.88 28.5507 68.688 28.092 68.496C27.644 68.2933 27.26 67.984 26.94 67.568C26.62 67.152 26.46 66.5973 26.46 65.904C26.46 65.264 26.62 64.704 26.94 64.224C27.26 63.744 27.708 63.376 28.284 63.12C28.86 62.864 29.5267 62.736 30.284 62.736C31.3613 62.736 32.2413 63.008 32.924 63.552C33.6173 64.0853 34.0013 64.8213 34.076 65.76H32.06C32.028 65.3547 31.836 65.008 31.484 64.72C31.132 64.432 30.668 64.288 30.092 64.288C29.5693 64.288 29.1427 64.4213 28.812 64.688C28.4813 64.9547 28.316 65.3387 28.316 65.84C28.316 66.1813 28.4173 66.464 28.62 66.688C28.8333 66.9013 29.1 67.072 29.42 67.2C29.74 67.328 30.1773 67.4667 30.732 67.616C31.468 67.8187 32.0653 68.0213 32.524 68.224C32.9933 68.4267 33.388 68.7413 33.708 69.168C34.0387 69.584 34.204 70.144 34.204 70.848C34.204 71.4133 34.0493 71.9467 33.74 72.448C33.4413 72.9493 32.9987 73.3547 32.412 73.664C31.836 73.9627 31.1533 74.112 30.364 74.112ZM35.7483 69.552C35.7483 68.6667 35.9296 67.8827 36.2923 67.2C36.6656 66.5173 37.1669 65.9893 37.7963 65.616C38.4363 65.232 39.1403 65.04 39.9083 65.04C40.6016 65.04 41.2043 65.1787 41.7163 65.456C42.2389 65.7227 42.6549 66.0587 42.9643 66.464V65.184H44.8043V74H42.9643V72.688C42.6549 73.104 42.2336 73.4507 41.7003 73.728C41.1669 74.0053 40.5589 74.144 39.8763 74.144C39.1189 74.144 38.4256 73.952 37.7963 73.568C37.1669 73.1733 36.6656 72.6293 36.2923 71.936C35.9296 71.232 35.7483 70.4373 35.7483 69.552ZM42.9643 69.584C42.9643 68.976 42.8363 68.448 42.5803 68C42.3349 67.552 42.0096 67.2107 41.6043 66.976C41.1989 66.7413 40.7616 66.624 40.2923 66.624C39.8229 66.624 39.3856 66.7413 38.9803 66.976C38.5749 67.2 38.2443 67.536 37.9883 67.984C37.7429 68.4213 37.6203 68.944 37.6203 69.552C37.6203 70.16 37.7429 70.6933 37.9883 71.152C38.2443 71.6107 38.5749 71.9627 38.9803 72.208C39.3963 72.4427 39.8336 72.56 40.2923 72.56C40.7616 72.56 41.1989 72.4427 41.6043 72.208C42.0096 71.9733 42.3349 71.632 42.5803 71.184C42.8363 70.7253 42.9643 70.192 42.9643 69.584ZM49.328 66.672V71.552C49.328 71.8827 49.4027 72.1227 49.552 72.272C49.712 72.4107 49.9787 72.48 50.352 72.48H51.472V74H50.032C49.2107 74 48.5813 73.808 48.144 73.424C47.7067 73.04 47.488 72.416 47.488 71.552V66.672H46.448V65.184H47.488V62.992H49.328V65.184H51.472V66.672H49.328Z" fill="#FF4141"/>
<path d="M96.0787 62.88V74H94.2547V66.384L90.8627 74H89.5987L86.1907 66.384V74H84.3667V62.88H86.3347L90.2387 71.6L94.1267 62.88H96.0787ZM102.3 74.144C101.468 74.144 100.716 73.9573 100.044 73.584C99.372 73.2 98.844 72.6667 98.46 71.984C98.076 71.2907 97.884 70.4907 97.884 69.584C97.884 68.688 98.0814 67.8933 98.476 67.2C98.8707 66.5067 99.4094 65.9733 100.092 65.6C100.775 65.2267 101.537 65.04 102.38 65.04C103.223 65.04 103.985 65.2267 104.668 65.6C105.351 65.9733 105.889 66.5067 106.284 67.2C106.679 67.8933 106.876 68.688 106.876 69.584C106.876 70.48 106.673 71.2747 106.268 71.968C105.863 72.6613 105.308 73.2 104.604 73.584C103.911 73.9573 103.143 74.144 102.3 74.144ZM102.3 72.56C102.769 72.56 103.207 72.448 103.612 72.224C104.028 72 104.364 71.664 104.62 71.216C104.876 70.768 105.004 70.224 105.004 69.584C105.004 68.944 104.881 68.4053 104.636 67.968C104.391 67.52 104.065 67.184 103.66 66.96C103.255 66.736 102.817 66.624 102.348 66.624C101.879 66.624 101.441 66.736 101.036 66.96C100.641 67.184 100.327 67.52 100.092 67.968C99.8574 68.4053 99.74 68.944 99.74 69.584C99.74 70.5333 99.98 71.2693 100.46 71.792C100.951 72.304 101.564 72.56 102.3 72.56Z" fill="#FF4141"/>
<path d="M147.217 62.88V64.368H144.257V74H142.433V64.368H139.457V62.88H147.217ZM157.049 65.184V74H155.225V72.96C154.937 73.3227 154.558 73.6107 154.089 73.824C153.63 74.0267 153.139 74.128 152.617 74.128C151.923 74.128 151.299 73.984 150.745 73.696C150.201 73.408 149.769 72.9813 149.449 72.416C149.139 71.8507 148.985 71.168 148.985 70.368V65.184H150.793V70.096C150.793 70.8853 150.99 71.4933 151.385 71.92C151.779 72.336 152.318 72.544 153.001 72.544C153.683 72.544 154.222 72.336 154.617 71.92C155.022 71.4933 155.225 70.8853 155.225 70.096V65.184H157.049ZM167.535 69.376C167.535 69.7067 167.514 70.0053 167.471 70.272H160.735C160.789 70.976 161.05 71.5413 161.519 71.968C161.989 72.3947 162.565 72.608 163.247 72.608C164.229 72.608 164.922 72.1973 165.327 71.376H167.295C167.029 72.1867 166.543 72.8533 165.839 73.376C165.146 73.888 164.282 74.144 163.247 74.144C162.405 74.144 161.647 73.9573 160.975 73.584C160.314 73.2 159.791 72.6667 159.407 71.984C159.034 71.2907 158.847 70.4907 158.847 69.584C158.847 68.6773 159.029 67.8827 159.391 67.2C159.765 66.5067 160.282 65.9733 160.943 65.6C161.615 65.2267 162.383 65.04 163.247 65.04C164.079 65.04 164.821 65.2213 165.471 65.584C166.122 65.9467 166.629 66.4587 166.991 67.12C167.354 67.7707 167.535 68.5227 167.535 69.376ZM165.631 68.8C165.621 68.128 165.381 67.5893 164.911 67.184C164.442 66.7787 163.861 66.576 163.167 66.576C162.538 66.576 161.999 66.7787 161.551 67.184C161.103 67.5787 160.837 68.1173 160.751 68.8H165.631Z" fill="#495E57"/>
<path d="M212.54 65.184L209.804 74H207.884L206.108 67.488L204.332 74H202.412L199.66 65.184H201.516L203.356 72.272L205.228 65.184H207.132L208.924 72.24L210.748 65.184H212.54ZM221.983 69.376C221.983 69.7067 221.962 70.0053 221.919 70.272H215.183C215.236 70.976 215.498 71.5413 215.967 71.968C216.436 72.3947 217.012 72.608 217.695 72.608C218.676 72.608 219.37 72.1973 219.775 71.376H221.743C221.476 72.1867 220.991 72.8533 220.287 73.376C219.594 73.888 218.73 74.144 217.695 74.144C216.852 74.144 216.095 73.9573 215.423 73.584C214.762 73.2 214.239 72.6667 213.855 71.984C213.482 71.2907 213.295 70.4907 213.295 69.584C213.295 68.6773 213.476 67.8827 213.839 67.2C214.212 66.5067 214.73 65.9733 215.391 65.6C216.063 65.2267 216.831 65.04 217.695 65.04C218.527 65.04 219.268 65.2213 219.919 65.584C220.57 65.9467 221.076 66.4587 221.439 67.12C221.802 67.7707 221.983 68.5227 221.983 69.376ZM220.079 68.8C220.068 68.128 219.828 67.5893 219.359 67.184C218.89 66.7787 218.308 66.576 217.615 66.576C216.986 66.576 216.447 66.7787 215.999 67.184C215.551 67.5787 215.284 68.1173 215.199 68.8H220.079ZM223.17 69.552C223.17 68.6667 223.351 67.8827 223.714 67.2C224.087 66.5173 224.589 65.9893 225.218 65.616C225.858 65.232 226.567 65.04 227.346 65.04C227.922 65.04 228.487 65.168 229.042 65.424C229.607 65.6693 230.055 66 230.386 66.416V62.16H232.226V74H230.386V72.672C230.087 73.0987 229.671 73.4507 229.138 73.728C228.615 74.0053 228.013 74.144 227.33 74.144C226.562 74.144 225.858 73.952 225.218 73.568C224.589 73.1733 224.087 72.6293 223.714 71.936C223.351 71.232 223.17 70.4373 223.17 69.552ZM230.386 69.584C230.386 68.976 230.258 68.448 230.002 68C229.757 67.552 229.431 67.2107 229.026 66.976C228.621 66.7413 228.183 66.624 227.714 66.624C227.245 66.624 226.807 66.7413 226.402 66.976C225.997 67.2 225.666 67.536 225.41 67.984C225.165 68.4213 225.042 68.944 225.042 69.552C225.042 70.16 225.165 70.6933 225.41 71.152C225.666 71.6107 225.997 71.9627 226.402 72.208C226.818 72.4427 227.255 72.56 227.714 72.56C228.183 72.56 228.621 72.4427 229.026 72.208C229.431 71.9733 229.757 71.632 230.002 71.184C230.258 70.7253 230.386 70.192 230.386 69.584Z" fill="#495E57"/>
<path d="M272.551 62.88V64.368H269.591V74H267.767V64.368H264.791V62.88H272.551ZM278.958 65.04C279.63 65.04 280.227 65.184 280.75 65.472C281.283 65.76 281.699 66.1867 281.998 66.752C282.307 67.3173 282.462 68 282.462 68.8V74H280.654V69.072C280.654 68.2827 280.457 67.68 280.062 67.264C279.667 66.8373 279.129 66.624 278.446 66.624C277.763 66.624 277.219 66.8373 276.814 67.264C276.419 67.68 276.222 68.2827 276.222 69.072V74H274.398V62.16H276.222V66.208C276.531 65.8347 276.921 65.5467 277.39 65.344C277.87 65.1413 278.393 65.04 278.958 65.04ZM292.773 65.184V74H290.949V72.96C290.661 73.3227 290.282 73.6107 289.813 73.824C289.354 74.0267 288.863 74.128 288.341 74.128C287.647 74.128 287.023 73.984 286.469 73.696C285.925 73.408 285.493 72.9813 285.173 72.416C284.863 71.8507 284.709 71.168 284.709 70.368V65.184H286.517V70.096C286.517 70.8853 286.714 71.4933 287.109 71.92C287.503 72.336 288.042 72.544 288.725 72.544C289.407 72.544 289.946 72.336 290.341 71.92C290.746 71.4933 290.949 70.8853 290.949 70.096V65.184H292.773Z" fill="#495E57"/>
<path d="M332.577 62.88V64.368H327.857V67.648H331.537V69.136H327.857V74H326.033V62.88H332.577ZM336.092 66.464C336.358 66.016 336.71 65.6693 337.148 65.424C337.596 65.168 338.124 65.04 338.732 65.04V66.928H338.268C337.553 66.928 337.009 67.1093 336.636 67.472C336.273 67.8347 336.092 68.464 336.092 69.36V74H334.268V65.184H336.092V66.464ZM341.336 64.016C341.006 64.016 340.728 63.904 340.504 63.68C340.28 63.456 340.168 63.1787 340.168 62.848C340.168 62.5173 340.28 62.24 340.504 62.016C340.728 61.792 341.006 61.68 341.336 61.68C341.656 61.68 341.928 61.792 342.152 62.016C342.376 62.24 342.488 62.5173 342.488 62.848C342.488 63.1787 342.376 63.456 342.152 63.68C341.928 63.904 341.656 64.016 341.336 64.016ZM342.232 65.184V74H340.408V65.184H342.232Z" fill="#495E57"/>
<path d="M379.364 74.112C378.617 74.112 377.945 73.984 377.348 73.728C376.751 73.4613 376.281 73.088 375.94 72.608C375.599 72.128 375.428 71.568 375.428 70.928H377.38C377.423 71.408 377.609 71.8027 377.94 72.112C378.281 72.4213 378.756 72.576 379.364 72.576C379.993 72.576 380.484 72.4267 380.836 72.128C381.188 71.8187 381.364 71.424 381.364 70.944C381.364 70.5707 381.252 70.2667 381.028 70.032C380.815 69.7973 380.543 69.616 380.212 69.488C379.892 69.36 379.444 69.2213 378.868 69.072C378.143 68.88 377.551 68.688 377.092 68.496C376.644 68.2933 376.26 67.984 375.94 67.568C375.62 67.152 375.46 66.5973 375.46 65.904C375.46 65.264 375.62 64.704 375.94 64.224C376.26 63.744 376.708 63.376 377.284 63.12C377.86 62.864 378.527 62.736 379.284 62.736C380.361 62.736 381.241 63.008 381.924 63.552C382.617 64.0853 383.001 64.8213 383.076 65.76H381.06C381.028 65.3547 380.836 65.008 380.484 64.72C380.132 64.432 379.668 64.288 379.092 64.288C378.569 64.288 378.143 64.4213 377.812 64.688C377.481 64.9547 377.316 65.3387 377.316 65.84C377.316 66.1813 377.417 66.464 377.62 66.688C377.833 66.9013 378.1 67.072 378.42 67.2C378.74 67.328 379.177 67.4667 379.732 67.616C380.468 67.8187 381.065 68.0213 381.524 68.224C381.993 68.4267 382.388 68.7413 382.708 69.168C383.039 69.584 383.204 70.144 383.204 70.848C383.204 71.4133 383.049 71.9467 382.74 72.448C382.441 72.9493 381.999 73.3547 381.412 73.664C380.836 73.9627 380.153 74.112 379.364 74.112ZM384.748 69.552C384.748 68.6667 384.93 67.8827 385.292 67.2C385.666 66.5173 386.167 65.9893 386.796 65.616C387.436 65.232 388.14 65.04 388.908 65.04C389.602 65.04 390.204 65.1787 390.716 65.456C391.239 65.7227 391.655 66.0587 391.964 66.464V65.184H393.804V74H391.964V72.688C391.655 73.104 391.234 73.4507 390.7 73.728C390.167 74.0053 389.559 74.144 388.876 74.144C388.119 74.144 387.426 73.952 386.796 73.568C386.167 73.1733 385.666 72.6293 385.292 71.936C384.93 71.232 384.748 70.4373 384.748 69.552ZM391.964 69.584C391.964 68.976 391.836 68.448 391.58 68C391.335 67.552 391.01 67.2107 390.604 66.976C390.199 66.7413 389.762 66.624 389.292 66.624C388.823 66.624 388.386 66.7413 387.98 66.976C387.575 67.2 387.244 67.536 386.988 67.984C386.743 68.4213 386.62 68.944 386.62 69.552C386.62 70.16 386.743 70.6933 386.988 71.152C387.244 71.6107 387.575 71.9627 387.98 72.208C388.396 72.4427 388.834 72.56 389.292 72.56C389.762 72.56 390.199 72.4427 390.604 72.208C391.01 71.9733 391.335 71.632 391.58 71.184C391.836 70.7253 391.964 70.192 391.964 69.584ZM398.328 66.672V71.552C398.328 71.8827 398.403 72.1227 398.552 72.272C398.712 72.4107 398.979 72.48 399.352 72.48H400.472V74H399.032C398.211 74 397.581 73.808 397.144 73.424C396.707 73.04 396.488 72.416 396.488 71.552V66.672H395.448V65.184H396.488V62.992H398.328V65.184H400.472V66.672H398.328Z" fill="#495E57"/>
<g filter="url(#filter0_dddd_121_34)">
<rect x="22" y="84" width="35" height="47" rx="12" fill="#495E57"/>
<path d="M31.968 111.02C32.992 110.135 33.7973 109.409 34.384 108.844C34.9813 108.268 35.4773 107.671 35.872 107.052C36.2667 106.433 36.464 105.815 36.464 105.196C36.464 104.556 36.3093 104.055 36 103.692C35.7013 103.329 35.2267 103.148 34.576 103.148C33.9467 103.148 33.456 103.351 33.104 103.756C32.7627 104.151 32.5813 104.684 32.56 105.356H30.8C30.832 104.14 31.1947 103.212 31.888 102.572C32.592 101.921 33.4827 101.596 34.56 101.596C35.7227 101.596 36.6293 101.916 37.28 102.556C37.9413 103.196 38.272 104.049 38.272 105.116C38.272 105.884 38.0747 106.625 37.68 107.34C37.296 108.044 36.832 108.679 36.288 109.244C35.7547 109.799 35.072 110.444 34.24 111.18L33.52 111.82H38.592V113.34H30.816V112.012L31.968 111.02ZM40.1624 104.716C40.2264 103.724 40.605 102.951 41.2984 102.396C42.0024 101.841 42.8984 101.564 43.9864 101.564C44.733 101.564 45.3784 101.697 45.9224 101.964C46.4664 102.231 46.877 102.593 47.1544 103.052C47.4317 103.511 47.5704 104.028 47.5704 104.604C47.5704 105.265 47.3944 105.831 47.0424 106.3C46.6904 106.769 46.269 107.084 45.7784 107.244V107.308C46.4077 107.5 46.8984 107.852 47.2504 108.364C47.6024 108.865 47.7784 109.511 47.7784 110.3C47.7784 110.929 47.6344 111.489 47.3464 111.98C47.0584 112.471 46.6317 112.86 46.0664 113.148C45.501 113.425 44.8237 113.564 44.0344 113.564C42.8824 113.564 41.933 113.271 41.1864 112.684C40.4504 112.087 40.0557 111.233 40.0024 110.124H41.7624C41.805 110.689 42.0237 111.153 42.4184 111.516C42.813 111.868 43.3464 112.044 44.0184 112.044C44.669 112.044 45.1704 111.868 45.5224 111.516C45.8744 111.153 46.0504 110.689 46.0504 110.124C46.0504 109.377 45.8104 108.849 45.3304 108.54C44.861 108.22 44.1357 108.06 43.1544 108.06H42.7384V106.556H43.1704C44.0344 106.545 44.6904 106.401 45.1384 106.124C45.597 105.847 45.8264 105.409 45.8264 104.812C45.8264 104.3 45.661 103.895 45.3304 103.596C44.9997 103.287 44.5304 103.132 43.9224 103.132C43.325 103.132 42.861 103.287 42.5304 103.596C42.1997 103.895 42.0024 104.268 41.9384 104.716H40.1624Z" fill="#F5F7F8"/>
<rect x="80" y="84" width="35" height="47" rx="12" fill="#495E57"/>
<path d="M89.968 111.02C90.992 110.135 91.7973 109.409 92.384 108.844C92.9813 108.268 93.4773 107.671 93.872 107.052C94.2667 106.433 94.464 105.815 94.464 105.196C94.464 104.556 94.3093 104.055 94 103.692C93.7013 103.329 93.2267 103.148 92.576 103.148C91.9467 103.148 91.456 103.351 91.104 103.756C90.7627 104.151 90.5813 104.684 90.56 105.356H88.8C88.832 104.14 89.1947 103.212 89.888 102.572C90.592 101.921 91.4827 101.596 92.56 101.596C93.7227 101.596 94.6293 101.916 95.28 102.556C95.9413 103.196 96.272 104.049 96.272 105.116C96.272 105.884 96.0747 106.625 95.68 107.34C95.296 108.044 94.832 108.679 94.288 109.244C93.7547 109.799 93.072 110.444 92.24 111.18L91.52 111.82H96.592V113.34H88.816V112.012L89.968 111.02ZM98.1624 104.716C98.2264 103.724 98.605 102.951 99.2984 102.396C100.002 101.841 100.898 101.564 101.986 101.564C102.733 101.564 103.378 101.697 103.922 101.964C104.466 102.231 104.877 102.593 105.154 103.052C105.432 103.511 105.57 104.028 105.57 104.604C105.57 105.265 105.394 105.831 105.042 106.3C104.69 106.769 104.269 107.084 103.778 107.244V107.308C104.408 107.5 104.898 107.852 105.25 108.364C105.602 108.865 105.778 109.511 105.778 110.3C105.778 110.929 105.634 111.489 105.346 111.98C105.058 112.471 104.632 112.86 104.066 113.148C103.501 113.425 102.824 113.564 102.034 113.564C100.882 113.564 99.933 113.271 99.1864 112.684C98.4504 112.087 98.0557 111.233 98.0024 110.124H99.7624C99.805 110.689 100.024 111.153 100.418 111.516C100.813 111.868 101.346 112.044 102.018 112.044C102.669 112.044 103.17 111.868 103.522 111.516C103.874 111.153 104.05 110.689 104.05 110.124C104.05 109.377 103.81 108.849 103.33 108.54C102.861 108.22 102.136 108.06 101.154 108.06H100.738V106.556H101.17C102.034 106.545 102.69 106.401 103.138 106.124C103.597 105.847 103.826 105.409 103.826 104.812C103.826 104.3 103.661 103.895 103.33 103.596C103 103.287 102.53 103.132 101.922 103.132C101.325 103.132 100.861 103.287 100.53 103.596C100.2 103.895 100.002 104.268 99.9384 104.716H98.1624Z" fill="#F5F7F8"/>
<rect x="138" y="84" width="35" height="47" rx="12" fill="#F5F7F8"/>
<path d="M147.968 111.02C148.992 110.135 149.797 109.409 150.384 108.844C150.981 108.268 151.477 107.671 151.872 107.052C152.267 106.433 152.464 105.815 152.464 105.196C152.464 104.556 152.309 104.055 152 103.692C151.701 103.329 151.227 103.148 150.576 103.148C149.947 103.148 149.456 103.351 149.104 103.756C148.763 104.151 148.581 104.684 148.56 105.356H146.8C146.832 104.14 147.195 103.212 147.888 102.572C148.592 101.921 149.483 101.596 150.56 101.596C151.723 101.596 152.629 101.916 153.28 102.556C153.941 103.196 154.272 104.049 154.272 105.116C154.272 105.884 154.075 106.625 153.68 107.34C153.296 108.044 152.832 108.679 152.288 109.244C151.755 109.799 151.072 110.444 150.24 111.18L149.52 111.82H154.592V113.34H146.816V112.012L147.968 111.02ZM156.162 104.716C156.226 103.724 156.605 102.951 157.298 102.396C158.002 101.841 158.898 101.564 159.986 101.564C160.733 101.564 161.378 101.697 161.922 101.964C162.466 102.231 162.877 102.593 163.154 103.052C163.432 103.511 163.57 104.028 163.57 104.604C163.57 105.265 163.394 105.831 163.042 106.3C162.69 106.769 162.269 107.084 161.778 107.244V107.308C162.408 107.5 162.898 107.852 163.25 108.364C163.602 108.865 163.778 109.511 163.778 110.3C163.778 110.929 163.634 111.489 163.346 111.98C163.058 112.471 162.632 112.86 162.066 113.148C161.501 113.425 160.824 113.564 160.034 113.564C158.882 113.564 157.933 113.271 157.186 112.684C156.45 112.087 156.056 111.233 156.002 110.124H157.762C157.805 110.689 158.024 111.153 158.418 111.516C158.813 111.868 159.346 112.044 160.018 112.044C160.669 112.044 161.17 111.868 161.522 111.516C161.874 111.153 162.05 110.689 162.05 110.124C162.05 109.377 161.81 108.849 161.33 108.54C160.861 108.22 160.136 108.06 159.154 108.06H158.738V106.556H159.17C160.034 106.545 160.69 106.401 161.138 106.124C161.597 105.847 161.826 105.409 161.826 104.812C161.826 104.3 161.661 103.895 161.33 103.596C161 103.287 160.53 103.132 159.922 103.132C159.325 103.132 158.861 103.287 158.53 103.596C158.2 103.895 158.002 104.268 157.938 104.716H156.162Z" fill="#495E57"/>
<rect x="196" y="84" width="35" height="47" rx="12" fill="#495E57"/>
<path d="M205.968 111.02C206.992 110.135 207.797 109.409 208.384 108.844C208.981 108.268 209.477 107.671 209.872 107.052C210.267 106.433 210.464 105.815 210.464 105.196C210.464 104.556 210.309 104.055 210 103.692C209.701 103.329 209.227 103.148 208.576 103.148C207.947 103.148 207.456 103.351 207.104 103.756C206.763 104.151 206.581 104.684 206.56 105.356H204.8C204.832 104.14 205.195 103.212 205.888 102.572C206.592 101.921 207.483 101.596 208.56 101.596C209.723 101.596 210.629 101.916 211.28 102.556C211.941 103.196 212.272 104.049 212.272 105.116C212.272 105.884 212.075 106.625 211.68 107.34C211.296 108.044 210.832 108.679 210.288 109.244C209.755 109.799 209.072 110.444 208.24 111.18L207.52 111.82H212.592V113.34H204.816V112.012L205.968 111.02ZM214.162 104.716C214.226 103.724 214.605 102.951 215.298 102.396C216.002 101.841 216.898 101.564 217.986 101.564C218.733 101.564 219.378 101.697 219.922 101.964C220.466 102.231 220.877 102.593 221.154 103.052C221.432 103.511 221.57 104.028 221.57 104.604C221.57 105.265 221.394 105.831 221.042 106.3C220.69 106.769 220.269 107.084 219.778 107.244V107.308C220.408 107.5 220.898 107.852 221.25 108.364C221.602 108.865 221.778 109.511 221.778 110.3C221.778 110.929 221.634 111.489 221.346 111.98C221.058 112.471 220.632 112.86 220.066 113.148C219.501 113.425 218.824 113.564 218.034 113.564C216.882 113.564 215.933 113.271 215.186 112.684C214.45 112.087 214.056 111.233 214.002 110.124H215.762C215.805 110.689 216.024 111.153 216.418 111.516C216.813 111.868 217.346 112.044 218.018 112.044C218.669 112.044 219.17 111.868 219.522 111.516C219.874 111.153 220.05 110.689 220.05 110.124C220.05 109.377 219.81 108.849 219.33 108.54C218.861 108.22 218.136 108.06 217.154 108.06H216.738V106.556H217.17C218.034 106.545 218.69 106.401 219.138 106.124C219.597 105.847 219.826 105.409 219.826 104.812C219.826 104.3 219.661 103.895 219.33 103.596C219 103.287 218.53 103.132 217.922 103.132C217.325 103.132 216.861 103.287 216.53 103.596C216.2 103.895 216.002 104.268 215.938 104.716H214.162Z" fill="#F5F7F8"/>
<rect x="254" y="84" width="35" height="47" rx="12" fill="#495E57"/>
<path d="M263.968 111.02C264.992 110.135 265.797 109.409 266.384 108.844C266.981 108.268 267.477 107.671 267.872 107.052C268.267 106.433 268.464 105.815 268.464 105.196C268.464 104.556 268.309 104.055 268 103.692C267.701 103.329 267.227 103.148 266.576 103.148C265.947 103.148 265.456 103.351 265.104 103.756C264.763 104.151 264.581 104.684 264.56 105.356H262.8C262.832 104.14 263.195 103.212 263.888 102.572C264.592 101.921 265.483 101.596 266.56 101.596C267.723 101.596 268.629 101.916 269.28 102.556C269.941 103.196 270.272 104.049 270.272 105.116C270.272 105.884 270.075 106.625 269.68 107.34C269.296 108.044 268.832 108.679 268.288 109.244C267.755 109.799 267.072 110.444 266.24 111.18L265.52 111.82H270.592V113.34H262.816V112.012L263.968 111.02ZM272.162 104.716C272.226 103.724 272.605 102.951 273.298 102.396C274.002 101.841 274.898 101.564 275.986 101.564C276.733 101.564 277.378 101.697 277.922 101.964C278.466 102.231 278.877 102.593 279.154 103.052C279.432 103.511 279.57 104.028 279.57 104.604C279.57 105.265 279.394 105.831 279.042 106.3C278.69 106.769 278.269 107.084 277.778 107.244V107.308C278.408 107.5 278.898 107.852 279.25 108.364C279.602 108.865 279.778 109.511 279.778 110.3C279.778 110.929 279.634 111.489 279.346 111.98C279.058 112.471 278.632 112.86 278.066 113.148C277.501 113.425 276.824 113.564 276.034 113.564C274.882 113.564 273.933 113.271 273.186 112.684C272.45 112.087 272.056 111.233 272.002 110.124H273.762C273.805 110.689 274.024 111.153 274.418 111.516C274.813 111.868 275.346 112.044 276.018 112.044C276.669 112.044 277.17 111.868 277.522 111.516C277.874 111.153 278.05 110.689 278.05 110.124C278.05 109.377 277.81 108.849 277.33 108.54C276.861 108.22 276.136 108.06 275.154 108.06H274.738V106.556H275.17C276.034 106.545 276.69 106.401 277.138 106.124C277.597 105.847 277.826 105.409 277.826 104.812C277.826 104.3 277.661 103.895 277.33 103.596C277 103.287 276.53 103.132 275.922 103.132C275.325 103.132 274.861 103.287 274.53 103.596C274.2 103.895 274.002 104.268 273.938 104.716H272.162Z" fill="#F5F7F8"/>
<rect x="312" y="84" width="35" height="47" rx="12" fill="#495E57"/>
<path d="M321.968 111.02C322.992 110.135 323.797 109.409 324.384 108.844C324.981 108.268 325.477 107.671 325.872 107.052C326.267 106.433 326.464 105.815 326.464 105.196C326.464 104.556 326.309 104.055 326 103.692C325.701 103.329 325.227 103.148 324.576 103.148C323.947 103.148 323.456 103.351 323.104 103.756C322.763 104.151 322.581 104.684 322.56 105.356H320.8C320.832 104.14 321.195 103.212 321.888 102.572C322.592 101.921 323.483 101.596 324.56 101.596C325.723 101.596 326.629 101.916 327.28 102.556C327.941 103.196 328.272 104.049 328.272 105.116C328.272 105.884 328.075 106.625 327.68 107.34C327.296 108.044 326.832 108.679 326.288 109.244C325.755 109.799 325.072 110.444 324.24 111.18L323.52 111.82H328.592V113.34H320.816V112.012L321.968 111.02ZM330.162 104.716C330.226 103.724 330.605 102.951 331.298 102.396C332.002 101.841 332.898 101.564 333.986 101.564C334.733 101.564 335.378 101.697 335.922 101.964C336.466 102.231 336.877 102.593 337.154 103.052C337.432 103.511 337.57 104.028 337.57 104.604C337.57 105.265 337.394 105.831 337.042 106.3C336.69 106.769 336.269 107.084 335.778 107.244V107.308C336.408 107.5 336.898 107.852 337.25 108.364C337.602 108.865 337.778 109.511 337.778 110.3C337.778 110.929 337.634 111.489 337.346 111.98C337.058 112.471 336.632 112.86 336.066 113.148C335.501 113.425 334.824 113.564 334.034 113.564C332.882 113.564 331.933 113.271 331.186 112.684C330.45 112.087 330.056 111.233 330.002 110.124H331.762C331.805 110.689 332.024 111.153 332.418 111.516C332.813 111.868 333.346 112.044 334.018 112.044C334.669 112.044 335.17 111.868 335.522 111.516C335.874 111.153 336.05 110.689 336.05 110.124C336.05 109.377 335.81 108.849 335.33 108.54C334.861 108.22 334.136 108.06 333.154 108.06H332.738V106.556H333.17C334.034 106.545 334.69 106.401 335.138 106.124C335.597 105.847 335.826 105.409 335.826 104.812C335.826 104.3 335.661 103.895 335.33 103.596C335 103.287 334.53 103.132 333.922 103.132C333.325 103.132 332.861 103.287 332.53 103.596C332.2 103.895 332.002 104.268 331.938 104.716H330.162Z" fill="#F5F7F8"/>
<rect x="370" y="84" width="35" height="47" rx="12" fill="#495E57"/>
<path d="M379.968 111.02C380.992 110.135 381.797 109.409 382.384 108.844C382.981 108.268 383.477 107.671 383.872 107.052C384.267 106.433 384.464 105.815 384.464 105.196C384.464 104.556 384.309 104.055 384 103.692C383.701 103.329 383.227 103.148 382.576 103.148C381.947 103.148 381.456 103.351 381.104 103.756C380.763 104.151 380.581 104.684 380.56 105.356H378.8C378.832 104.14 379.195 103.212 379.888 102.572C380.592 101.921 381.483 101.596 382.56 101.596C383.723 101.596 384.629 101.916 385.28 102.556C385.941 103.196 386.272 104.049 386.272 105.116C386.272 105.884 386.075 106.625 385.68 107.34C385.296 108.044 384.832 108.679 384.288 109.244C383.755 109.799 383.072 110.444 382.24 111.18L381.52 111.82H386.592V113.34H378.816V112.012L379.968 111.02ZM388.162 104.716C388.226 103.724 388.605 102.951 389.298 102.396C390.002 101.841 390.898 101.564 391.986 101.564C392.733 101.564 393.378 101.697 393.922 101.964C394.466 102.231 394.877 102.593 395.154 103.052C395.432 103.511 395.57 104.028 395.57 104.604C395.57 105.265 395.394 105.831 395.042 106.3C394.69 106.769 394.269 107.084 393.778 107.244V107.308C394.408 107.5 394.898 107.852 395.25 108.364C395.602 108.865 395.778 109.511 395.778 110.3C395.778 110.929 395.634 111.489 395.346 111.98C395.058 112.471 394.632 112.86 394.066 113.148C393.501 113.425 392.824 113.564 392.034 113.564C390.882 113.564 389.933 113.271 389.186 112.684C388.45 112.087 388.056 111.233 388.002 110.124H389.762C389.805 110.689 390.024 111.153 390.418 111.516C390.813 111.868 391.346 112.044 392.018 112.044C392.669 112.044 393.17 111.868 393.522 111.516C393.874 111.153 394.05 110.689 394.05 110.124C394.05 109.377 393.81 108.849 393.33 108.54C392.861 108.22 392.136 108.06 391.154 108.06H390.738V106.556H391.17C392.034 106.545 392.69 106.401 393.138 106.124C393.597 105.847 393.826 105.409 393.826 104.812C393.826 104.3 393.661 103.895 393.33 103.596C393 103.287 392.53 103.132 391.922 103.132C391.325 103.132 390.861 103.287 390.53 103.596C390.2 103.895 390.002 104.268 389.938 104.716H388.162Z" fill="#F5F7F8"/>
</g>
<path d="M209 152L214 157L219 152" stroke="black" stroke-width="2" stroke-linecap="round" stroke-linejoin="round"/>
<path d="M209 145L214 150L219 145" stroke="black" stroke-width="2" stroke-linecap="round" stroke-linejoin="round"/>
<defs>
<filter id="filter0_dddd_121_34" x="0" y="79" width="427" height="129" filterUnits="userSpaceOnUse" color-interpolation-filters="sRGB">
<feFlood flood-opacity="0" result="BackgroundImageFix"/>
<feColorMatrix in="SourceAlpha" type="matrix" values="0 0 0 0 0 0 0 0 0 0 0 0 0 0 0 0 0 0 127 0" result="hardAlpha"/>
<feOffset dy="3"/>
<feGaussianBlur stdDeviation="4"/>
<feColorMatrix type="matrix" values="0 0 0 0 0 0 0 0 0 0 0 0 0 0 0 0 0 0 0.1 0"/>
<feBlend mode="normal" in2="BackgroundImageFix" result="effect1_dropShadow_121_34"/>
<feColorMatrix in="SourceAlpha" type="matrix" values="0 0 0 0 0 0 0 0 0 0 0 0 0 0 0 0 0 0 127 0" result="hardAlpha"/>
<feOffset dy="14"/>
<feGaussianBlur stdDeviation="7"/>
<feColorMatrix type="matrix" values="0 0 0 0 0 0 0 0 0 0 0 0 0 0 0 0 0 0 0.09 0"/>
<feBlend mode="normal" in2="effect1_dropShadow_121_34" result="effect2_dropShadow_121_34"/>
<feColorMatrix in="SourceAlpha" type="matrix" values="0 0 0 0 0 0 0 0 0 0 0 0 0 0 0 0 0 0 127 0" result="hardAlpha"/>
<feOffset dy="31"/>
<feGaussianBlur stdDeviation="9.5"/>
<feColorMatrix type="matrix" values="0 0 0 0 0 0 0 0 0 0 0 0 0 0 0 0 0 0 0.05 0"/>
<feBlend mode="normal" in2="effect2_dropShadow_121_34" result="effect3_dropShadow_121_34"/>
<feColorMatrix in="SourceAlpha" type="matrix" values="0 0 0 0 0 0 0 0 0 0 0 0 0 0 0 0 0 0 127 0" result="hardAlpha"/>
<feOffset dy="55"/>
<feGaussianBlur stdDeviation="11"/>
<feColorMatrix type="matrix" values="0 0 0 0 0 0 0 0 0 0 0 0 0 0 0 0 0 0 0.01 0"/>
<feBlend mode="normal" in2="effect3_dropShadow_121_34" result="effect4_dropShadow_121_34"/>
<feBlend mode="normal" in="SourceGraphic" in2="effect4_dropShadow_121_34" result="shape"/>
</filter>
</defs>
</svg>
